# xmcd
#
# Track frame offsets:
#	150
#	12444
#	25288
#	38584
#	51859
#	65515
#	79710
#	90918
#	105535
#	116725
#	127586
#	137059
#	149478
#	163790
#	173742
#	191098
#	204134
#	214305
#	226709
#	239275
#	252418
#	266827
#	277461
#	293447
#	303895
#
# Disc length: 4202
#
# Revision: 1
# Processed by: cddbd v1.5.1PL0 Copyright (c) Steve Scherf et al.
# Submitted via: VisiTrax 2.9.10.220 - For more info visit www.synapsa.com
# Normalized: r0:DSETVAR1
#
DISCID=60106819
DTITLE=Various Artist - Rhythm and Booze
DYEAR=2005
DGENRE=Blues
TTITLE0=Floyd Dixon - Wine Wine Wine
TTITLE1=Dave Bartholomew - Who Drank My Beer While I Was In The Rear
TTITLE2=Amos Milburn - Bad, Bad Whiskey
TTITLE3=Louis Jordan - Whiskey Do Your Stuff
TTITLE4=Nina Simone - Gin House Blues
TTITLE5=Jack 'The Bear' Parker - Cheap Old Wine and Whiskey
TTITLE6=Peppermint Harris - I Got Loaded
TTITLE7=Amos Milburn - One Scotch, One Bourbon, One Beer
TTITLE8=Calvin Bose - Waiting and Drinking
TTITLE9=Jimmy Liggins - I Ain't Drunk
TTITLE10=Laverne Ray - Drunk, That's All
TTITLE11=Piney Brown - Battle With The Bottle (Tk1)
TTITLE12=Floyd Turnham - Beer Drinkin' Woman
TTITLE13=Papa Lightfoot - Wine, Women, Whiskey
TTITLE14=Sunnyland Slim - Everytime We Got To Drinkin'
TTITLE15=Lightnin' Hopkins - Drinkin' Woman
TTITLE16=Floyd Dixon - Wino Blues
TTITLE17=Little Esther - Aged and Mellow Blues
TTITLE18=Amos Milburn - Let Me Go Home, Whiskey
TTITLE19=Big Jay McNeely - All That Wine Is Gone
TTITLE20=Jay McShann and His Jazz-Men - When I've Been Drinking
TTITLE21=Calvin Bose - Looped
TTITLE22=Jimmy Rogers - Sloppy Drunk
TTITLE23=J B Lenoir - Give Me One More Shot
TTITLE24=Jimmy Liggins - No More Alcohol
EXTD=
EXTT0=
EXTT1=
EXTT2=
EXTT3=
EXTT4=
EXTT5=
EXTT6=
EXTT7=
EXTT8=
EXTT9=
EXTT10=
EXTT11=
EXTT12=
EXTT13=
EXTT14=
EXTT15=
EXTT16=
EXTT17=
EXTT18=
EXTT19=
EXTT20=
EXTT21=
EXTT22=
EXTT23=
EXTT24=
PLAYORDER=
